<?xml version="1.0" encoding="UTF-8"?>
<svg width="57px" height="53px" viewBox="0 0 57 53" version="1.1" xmlns="http://www.w3.org/2000/svg" xmlns:xlink="http://www.w3.org/1999/xlink">
    <!-- Generator: Sketch 51.2 (57519) - http://www.bohemiancoding.com/sketch -->
    <title>Group</title>
    <desc>Created with Sketch.</desc>
    <defs></defs>
    <g id="Page-1" stroke="none" stroke-width="1" fill="none" fill-rule="evenodd">
        <g id="Group" transform="translate(8.000000, 8.000000)" fill-rule="nonzero">
            <path d="M29.0831916,34.1172483 C29.0669225,34.130533 29.0502953,34.1441913 29.0333244,34.1582172 C28.5394005,34.566428 27.9474831,35.115706 26.9443636,36.0845166 C26.8757668,36.1507844 26.8757668,36.1507844 26.8068862,36.217381 C25.3040385,37.670617 24.9371124,38.0189638 24.2899327,38.5803765 C22.6615474,39.9929614 21.7892442,40.5665309 20.0903944,40.5665309 C18.465715,40.5665309 17.4169198,39.9524356 15.9219001,38.734894 C15.2090528,38.1543523 14.4802548,37.4828718 13.3804732,36.4215194 C13.2739415,36.3186505 13.2739415,36.3186505 13.1681693,36.2163272 C11.6358732,34.7334911 11.4474183,34.5537035 10.9678908,34.1335774 C10.961625,34.1280877 10.9554018,34.1226446 10.9492219,34.1172483 C7.9770601,34.1172483 7.61115066,34.1172483 3.97829592,34.1172483 C-0.212063918,34.1172483 -4,31.3129219 -4,27.1719926 L-4,3.31542122 C-4,-0.825508069 -0.212063918,-3.62983451 3.97829592,-3.62983451 L36.2024929,-3.62983451 C40.3928527,-3.62983451 44.1807888,-0.825508069 44.1807888,3.31542122 L44.1807888,27.1719926 C44.1807888,31.3129219 40.3928527,34.1172483 36.2024929,34.1172483 C32.1669833,34.1172483 31.7747667,34.1172483 29.0831916,34.1172483 Z" id="Rectangle" stroke="#2F3640" stroke-width="8"></path>
            <circle id="Oval" fill="#2F3640" cx="10" cy="16" r="4"></circle>
            <circle id="Oval" fill="#2F3640" cx="20" cy="16" r="4"></circle>
            <circle id="Oval" fill="#2F3640" cx="30" cy="16" r="4"></circle>
        </g>
    </g>
</svg>