<?xml version="1.0" encoding="UTF-8"?>
<svg width="415px" height="52px" viewBox="0 0 415 52" version="1.1" xmlns="http://www.w3.org/2000/svg" xmlns:xlink="http://www.w3.org/1999/xlink">
    <!-- Generator: Sketch 51.2 (57519) - http://www.bohemiancoding.com/sketch -->
    <title>Group</title>
    <desc>Created with Sketch.</desc>
    <defs></defs>
    <g id="Page-1" stroke="none" stroke-width="1" fill="none" fill-rule="evenodd">
        <g id="Group">
            <path d="M15.08,0.64 C23.016,0.64 29.416,7.04 29.416,14.848 C29.416,22.72 23.016,29.184 15.08,29.184 L8.872,29.184 L8.872,48 L0.488,48 L0.488,0.64 L15.08,0.64 Z M15.08,20.736 C18.408,20.736 20.968,18.176 20.968,14.848 C20.968,11.648 18.408,9.024 15.08,9.024 L8.872,9.024 L8.872,20.736 L15.08,20.736 Z M48.296,15.488 C56.04,15.488 62.312,21.76 62.312,29.504 L62.312,48 L53.928,48 L53.928,29.504 C53.928,26.432 51.368,23.872 48.296,23.872 C45.224,23.872 42.664,26.432 42.664,29.504 L42.664,48 L34.216,48 L34.216,3.2 L42.664,3.2 L42.664,16.96 C44.328,16.064 46.184,15.488 48.296,15.488 Z M82.856,15.488 C91.944,15.488 99.368,22.912 99.368,32 C99.368,41.088 91.944,48.512 82.856,48.512 C73.768,48.512 66.344,41.088 66.344,32 C66.344,22.912 73.768,15.488 82.856,15.488 Z M82.856,23.936 C78.376,23.936 74.728,27.52 74.728,32 C74.728,36.48 78.376,40.128 82.856,40.128 C87.336,40.128 90.92,36.48 90.92,32 C90.92,27.52 87.336,23.936 82.856,23.936 Z M116.904,48 C109.48,48 104.808,43.776 104.808,35.52 L104.808,5.824 L113.192,5.824 L113.192,16 L122.984,16 L122.984,23.296 L113.192,23.296 L113.192,35.584 C113.192,37.888 114.856,39.616 117.16,39.616 L122.728,39.616 L122.728,48 L116.904,48 Z M143.016,15.488 C152.104,15.488 159.528,22.912 159.528,32 C159.528,41.088 152.104,48.512 143.016,48.512 C133.928,48.512 126.504,41.088 126.504,32 C126.504,22.912 133.928,15.488 143.016,15.488 Z M143.016,23.936 C138.536,23.936 134.888,27.52 134.888,32 C134.888,36.48 138.536,40.128 143.016,40.128 C147.496,40.128 151.08,36.48 151.08,32 C151.08,27.52 147.496,23.936 143.016,23.936 Z M197.8,48.512 C192.872,48.512 188.136,46.336 183.4,42.56 L187.688,35.136 C191.272,38.016 194.664,39.36 197.352,39.36 C200.68,39.36 203.048,37.376 203.048,34.496 C203.048,30.272 197.864,28.48 193.064,25.984 C187.624,23.104 183.528,19.072 183.848,12.8 C184.168,5.12 190.632,0 198.568,0.256 C202.6,0.384 206.248,1.92 208.936,3.776 L204.712,10.24 C202.92,9.088 200.552,7.936 198.184,7.936 C194.856,7.936 192.424,10.048 192.424,12.928 C192.424,16.384 196.328,17.856 200.232,19.776 C204.392,21.696 212.072,25.792 212.072,34.56 C212.072,42.368 206.056,48.512 197.8,48.512 Z M231.784,15.488 C239.528,15.488 245.8,21.76 245.8,29.504 L245.8,48 L237.416,48 L237.416,29.504 C237.416,26.432 234.856,23.872 231.784,23.872 C228.712,23.872 226.152,26.432 226.152,29.504 L226.152,48 L217.704,48 L217.704,3.2 L226.152,3.2 L226.152,16.96 C227.816,16.064 229.672,15.488 231.784,15.488 Z M282.92,16 L282.92,48 L275.88,48 L275.88,45.248 C273.256,47.232 270.056,48.512 266.408,48.512 C257.32,48.512 249.896,41.088 249.896,31.936 C249.896,22.848 257.32,15.488 266.408,15.488 C269.992,15.488 273.192,16.704 275.816,18.752 L275.816,16 L282.92,16 Z M266.6,40.128 C271.08,40.128 274.664,36.48 274.664,31.936 C274.664,27.456 271.08,23.872 266.6,23.872 C262.12,23.872 258.536,27.456 258.536,31.936 C258.536,36.48 262.12,40.128 266.6,40.128 Z M307.048,16 L307.048,23.936 L303.08,23.936 C300.008,23.936 297.576,26.112 297.576,29.184 L297.576,48 L289.256,48 L289.256,16 L295.848,16 L295.848,18.112 C297.64,16.64 299.944,16 302.504,16 L307.048,16 Z M342.824,34.624 L318.632,34.624 C320.168,38.72 323.752,40.64 327.208,40.64 C330.792,40.64 333.8,38.912 335.848,37.184 L340.776,43.136 C336.232,47.104 331.24,48.512 327.08,48.512 C317.352,48.512 310.056,40.832 310.056,31.68 C310.056,22.592 317.288,15.488 326.504,15.488 C335.848,15.488 342.824,22.912 342.824,34.624 Z M318.696,28.224 L333.736,28.224 C333.096,25.088 330.28,22.4 326.312,22.4 C322.472,22.4 319.336,24.832 318.696,28.224 Z" id="Photo-Share" fill="#FFFFFF"></path>
            <path d="M375.819426,-5.17920154e-16 L402.180574,5.17920154e-16 C406.638168,-3.00926524e-16 408.254599,0.464128056 409.884229,1.33566352 C411.513858,2.20719898 412.792801,3.48614185 413.664336,5.11577148 C414.535872,6.74540111 415,8.3618323 415,12.819426 L415,39.180574 C415,43.6381677 414.535872,45.2545989 413.664336,46.8842285 C412.792801,48.5138581 411.513858,49.792801 409.884229,50.6643365 C408.254599,51.5358719 406.638168,52 402.180574,52 L375.819426,52 C371.361832,52 369.745401,51.5358719 368.115771,50.6643365 C366.486142,49.792801 365.207199,48.5138581 364.335664,46.8842285 C363.464128,45.2545989 363,43.6381677 363,39.180574 L363,12.819426 C363,8.3618323 363.464128,6.74540111 364.335664,5.11577148 C365.207199,3.48614185 366.486142,2.20719898 368.115771,1.33566352 C369.745401,0.464128056 371.361832,3.00926524e-16 375.819426,-5.17920154e-16 Z M389.5,42 C398.060414,42 405,35.0604136 405,26.5 C405,17.9395864 398.060414,11 389.5,11 C380.939586,11 374,17.9395864 374,26.5 C374,35.0604136 380.939586,42 389.5,42 Z" id="Combined-Shape" fill="#FFFFFF" fill-rule="nonzero"></path>
            <circle id="Oval-2" stroke="#FFFFFF" stroke-width="3" fill-rule="nonzero" cx="389.5" cy="26.5" r="11.0162896"></circle>
        </g>
    </g>
</svg>